<mxfile host="Electron" modified="2023-11-20T15:04:45.836Z" agent="Mozilla/5.0 (Windows NT 10.0; Win64; x64) AppleWebKit/537.36 (KHTML, like Gecko) draw.io/22.1.2 Chrome/114.0.5735.289 Electron/25.9.4 Safari/537.36" etag="5lNEVFWNlcOLojrJQyyd" version="22.1.2" type="device">
  <diagram name="Page-1" id="5Wp63UrGyDNFbtifENYl">
    <mxGraphModel dx="864" dy="526" grid="1" gridSize="10" guides="1" tooltips="1" connect="1" arrows="1" fold="1" page="1" pageScale="1" pageWidth="850" pageHeight="1100" math="0" shadow="0">
      <root>
        <mxCell id="0" />
        <mxCell id="1" parent="0" />
        <mxCell id="py4azdenY6T0kiX5jDFl-23" style="edgeStyle=orthogonalEdgeStyle;rounded=0;orthogonalLoop=1;jettySize=auto;html=1;entryX=0.5;entryY=0;entryDx=0;entryDy=0;" edge="1" parent="1" source="py4azdenY6T0kiX5jDFl-1" target="py4azdenY6T0kiX5jDFl-2">
          <mxGeometry relative="1" as="geometry" />
        </mxCell>
        <mxCell id="py4azdenY6T0kiX5jDFl-1" value="Mulai" style="rounded=1;whiteSpace=wrap;html=1;arcSize=50;" vertex="1" parent="1">
          <mxGeometry x="320" y="120" width="120" height="40" as="geometry" />
        </mxCell>
        <mxCell id="py4azdenY6T0kiX5jDFl-24" style="edgeStyle=orthogonalEdgeStyle;rounded=0;orthogonalLoop=1;jettySize=auto;html=1;entryX=0.5;entryY=0;entryDx=0;entryDy=0;" edge="1" parent="1" source="py4azdenY6T0kiX5jDFl-2" target="py4azdenY6T0kiX5jDFl-3">
          <mxGeometry relative="1" as="geometry" />
        </mxCell>
        <mxCell id="py4azdenY6T0kiX5jDFl-2" value="Home" style="rounded=0;whiteSpace=wrap;html=1;" vertex="1" parent="1">
          <mxGeometry x="320" y="200" width="120" height="40" as="geometry" />
        </mxCell>
        <mxCell id="py4azdenY6T0kiX5jDFl-28" style="edgeStyle=orthogonalEdgeStyle;rounded=0;orthogonalLoop=1;jettySize=auto;html=1;" edge="1" parent="1" source="py4azdenY6T0kiX5jDFl-3" target="py4azdenY6T0kiX5jDFl-10">
          <mxGeometry relative="1" as="geometry" />
        </mxCell>
        <mxCell id="py4azdenY6T0kiX5jDFl-3" value="Profile" style="rounded=0;whiteSpace=wrap;html=1;" vertex="1" parent="1">
          <mxGeometry x="320" y="280" width="120" height="40" as="geometry" />
        </mxCell>
        <mxCell id="py4azdenY6T0kiX5jDFl-15" style="edgeStyle=orthogonalEdgeStyle;rounded=0;orthogonalLoop=1;jettySize=auto;html=1;entryX=0;entryY=0.5;entryDx=0;entryDy=0;" edge="1" parent="1" source="py4azdenY6T0kiX5jDFl-10" target="py4azdenY6T0kiX5jDFl-11">
          <mxGeometry relative="1" as="geometry" />
        </mxCell>
        <mxCell id="py4azdenY6T0kiX5jDFl-10" value="Keamanan PIN" style="rounded=0;whiteSpace=wrap;html=1;" vertex="1" parent="1">
          <mxGeometry x="320" y="360" width="120" height="40" as="geometry" />
        </mxCell>
        <mxCell id="py4azdenY6T0kiX5jDFl-12" style="edgeStyle=orthogonalEdgeStyle;rounded=0;orthogonalLoop=1;jettySize=auto;html=1;entryX=1;entryY=0.5;entryDx=0;entryDy=0;fillColor=#e51400;strokeColor=#B20000;" edge="1" parent="1" source="py4azdenY6T0kiX5jDFl-11" target="py4azdenY6T0kiX5jDFl-3">
          <mxGeometry relative="1" as="geometry">
            <Array as="points">
              <mxPoint x="520" y="300" />
            </Array>
          </mxGeometry>
        </mxCell>
        <mxCell id="py4azdenY6T0kiX5jDFl-14" value="NO" style="edgeLabel;html=1;align=center;verticalAlign=middle;resizable=0;points=[];" vertex="1" connectable="0" parent="py4azdenY6T0kiX5jDFl-12">
          <mxGeometry x="-0.7167" y="1" relative="1" as="geometry">
            <mxPoint as="offset" />
          </mxGeometry>
        </mxCell>
        <mxCell id="py4azdenY6T0kiX5jDFl-17" style="edgeStyle=orthogonalEdgeStyle;rounded=0;orthogonalLoop=1;jettySize=auto;html=1;fillColor=#008a00;strokeColor=#005700;" edge="1" parent="1" source="py4azdenY6T0kiX5jDFl-11" target="py4azdenY6T0kiX5jDFl-16">
          <mxGeometry relative="1" as="geometry">
            <Array as="points">
              <mxPoint x="520" y="460" />
            </Array>
          </mxGeometry>
        </mxCell>
        <mxCell id="py4azdenY6T0kiX5jDFl-18" value="YES" style="edgeLabel;html=1;align=center;verticalAlign=middle;resizable=0;points=[];" vertex="1" connectable="0" parent="py4azdenY6T0kiX5jDFl-17">
          <mxGeometry x="-0.7077" y="2" relative="1" as="geometry">
            <mxPoint as="offset" />
          </mxGeometry>
        </mxCell>
        <mxCell id="py4azdenY6T0kiX5jDFl-11" value="Rubah PIN?" style="rhombus;whiteSpace=wrap;html=1;" vertex="1" parent="1">
          <mxGeometry x="480" y="340" width="80" height="80" as="geometry" />
        </mxCell>
        <mxCell id="py4azdenY6T0kiX5jDFl-25" style="edgeStyle=orthogonalEdgeStyle;rounded=0;orthogonalLoop=1;jettySize=auto;html=1;entryX=0.5;entryY=0;entryDx=0;entryDy=0;" edge="1" parent="1" source="py4azdenY6T0kiX5jDFl-16" target="py4azdenY6T0kiX5jDFl-19">
          <mxGeometry relative="1" as="geometry" />
        </mxCell>
        <mxCell id="py4azdenY6T0kiX5jDFl-16" value="Proses PIN Baru" style="shape=parallelogram;perimeter=parallelogramPerimeter;whiteSpace=wrap;html=1;fixedSize=1;" vertex="1" parent="1">
          <mxGeometry x="320" y="440" width="120" height="40" as="geometry" />
        </mxCell>
        <mxCell id="py4azdenY6T0kiX5jDFl-26" style="edgeStyle=orthogonalEdgeStyle;rounded=0;orthogonalLoop=1;jettySize=auto;html=1;entryX=0.5;entryY=0;entryDx=0;entryDy=0;" edge="1" parent="1" source="py4azdenY6T0kiX5jDFl-19" target="py4azdenY6T0kiX5jDFl-21">
          <mxGeometry relative="1" as="geometry" />
        </mxCell>
        <mxCell id="py4azdenY6T0kiX5jDFl-19" value="Vierifikasi PIN" style="shape=parallelogram;perimeter=parallelogramPerimeter;whiteSpace=wrap;html=1;fixedSize=1;" vertex="1" parent="1">
          <mxGeometry x="320" y="520" width="120" height="40" as="geometry" />
        </mxCell>
        <mxCell id="py4azdenY6T0kiX5jDFl-27" style="edgeStyle=orthogonalEdgeStyle;rounded=0;orthogonalLoop=1;jettySize=auto;html=1;entryX=0.5;entryY=0;entryDx=0;entryDy=0;" edge="1" parent="1" source="py4azdenY6T0kiX5jDFl-21" target="py4azdenY6T0kiX5jDFl-22">
          <mxGeometry relative="1" as="geometry" />
        </mxCell>
        <mxCell id="py4azdenY6T0kiX5jDFl-21" value="PIN Berhasil Dirubah" style="rounded=0;whiteSpace=wrap;html=1;" vertex="1" parent="1">
          <mxGeometry x="320" y="600" width="120" height="40" as="geometry" />
        </mxCell>
        <mxCell id="py4azdenY6T0kiX5jDFl-22" value="Selesai" style="rounded=1;whiteSpace=wrap;html=1;arcSize=50;" vertex="1" parent="1">
          <mxGeometry x="320" y="680" width="120" height="40" as="geometry" />
        </mxCell>
      </root>
    </mxGraphModel>
  </diagram>
</mxfile>
